<svg xmlns="http://www.w3.org/2000/svg" xmlns:xlink="http://www.w3.org/1999/xlink" xmlns:lucid="lucid" width="440"
     height="540">
    <g transform="translate(-80 -80)" lucid:page-tab-id="0_0">
        <path
                d="M100 119.67a6 6 0 0 1 6-6h388a6 6 0 0 1 6 6V171a6 6 0 0 1-6 6H106a6 6 0 0 1-6-6z" stroke="#000"
                stroke-opacity="0"
                fill="#fff"
                fill-opacity="0"
        />
        <use
                xlink:href="#a"
                transform="matrix(1,0,0,1,105,118.66666666666664) translate(79.9382716049383 38.93055555555556)"
        />
        <path
                d="M140 226a6 6 0 0 1 6-6h308a6 6 0 0 1 6 6v180a6 6 0 0 1-6 6H146a6 6 0 0 1-6-6zM140 446a6 6 0 0 1 6-6h128a6 6 0 0 1 6 6v108a6 6 0 0 1-6 6H146a6 6 0 0 1-6-6z"
                stroke="#3a414a"
                fill="#fff"
        />
        <use
                xlink:href="#b"
                transform="matrix(1,0,0,1,153,453) translate(16.75308641975308 14.222222222222223)"
        />
        <path
                d="M100 181.33a6 6 0 0 1 6-6h388a6 6 0 0 1 6 6v28a6 6 0 0 1-6 6H106a6 6 0 0 1-6-6z" stroke="#000"
                stroke-opacity="0"
                fill="#fff"
                fill-opacity="0"
        />
        <use
                xlink:href="#c"
                transform="matrix(1,0,0,1,105,180.33333333333331) translate(151.57407407407408 19.65277777777778)"
        />
        <use
                xlink:href="#d"
                transform="matrix(1,0,0,1,105,180.33333333333331) translate(226.08024691358025 19.65277777777778)"
        />
        <path
                d="M300 446a6 6 0 0 1 6-6h148a6 6 0 0 1 6 6v108a6 6 0 0 1-6 6H306a6 6 0 0 1-6-6z"
                stroke="#3a414a"
                fill="#fff"
        />
        <use xlink:href="#e" transform="matrix(1,0,0,1,313,453) translate(4.456790123456798 14.222222222222221)"/>
        <path d="M140 486a6 6 0 0 1 6-6h128a6 6 0 0 1 6 6v68a6 6 0 0 1-6 6H146a6 6 0 0 1-6-6z" stroke="#000"
              stroke-opacity="0" fill="#fff" fill-opacity="0"/>
        <use xlink:href="#f" transform="matrix(1,0,0,1,145,485) translate(25.802469135802482 41.97916666666666)"/>
        <use xlink:href="#g" transform="matrix(1,0,0,1,145,485) translate(72.09876543209876 41.97916666666666)"/>
        <path d="M300 481a6 6 0 0 1 6-6h148a6 6 0 0 1 6 6v73a6 6 0 0 1-6 6H306a6 6 0 0 1-6-6z" stroke="#000"
              stroke-opacity="0" fill="#fff" fill-opacity="0"/>
        <g>
            <use xlink:href="#h" transform="matrix(1,0,0,1,305,480) translate(10.524691358024725 43.07291666666666)"/>
            <use xlink:href="#i" transform="matrix(1,0,0,1,305,480) translate(93.85802469135803 43.07291666666666)"/>
        </g>
        <defs>
            <path fill="#3a414a"
                  d="M30-248c118-7 216 8 213 122C240-48 200 0 122 0H30v-248zM63-27c89 8 146-16 146-99s-60-101-146-95v194"
                  id="j"/>
            <path fill="#3a414a" d="M205 0l-28-72H64L36 0H1l101-248h38L239 0h-34zm-38-99l-47-123c-12 45-31 82-46 123h93"
                  id="k"/>
            <path fill="#3a414a" d="M127-220V0H93v-220H8v-28h204v28h-85" id="l"/>
            <path fill="#3a414a"
                  d="M160-131c35 5 61 23 61 61C221 17 115-2 30 0v-248c76 3 177-17 177 60 0 33-19 50-47 57zm-97-11c50-1 110 9 110-42 0-47-63-36-110-37v79zm0 115c55-2 124 14 124-45 0-56-70-42-124-44v89"
                  id="m"/>
            <path fill="#3a414a"
                  d="M185-189c-5-48-123-54-124 2 14 75 158 14 163 119 3 78-121 87-175 55-17-10-28-26-33-46l33-7c5 56 141 63 141-1 0-78-155-14-162-118-5-82 145-84 179-34 5 7 8 16 11 25"
                  id="n"/>
            <path fill="#3a414a" d="M30 0v-248h187v28H63v79h144v27H63v87h162V0H30" id="o"/>
            <g id="a">
                <use transform="matrix(0.12345679012345678,0,0,0.12345679012345678,0,0)" xlink:href="#j"/>
                <use transform="matrix(0.12345679012345678,0,0,0.12345679012345678,31.975308641975307,0)"
                     xlink:href="#k"/>
                <use transform="matrix(0.12345679012345678,0,0,0.12345679012345678,58.2716049382716,0)"
                     xlink:href="#l"/>
                <use transform="matrix(0.12345679012345678,0,0,0.12345679012345678,81.9753086419753,0)"
                     xlink:href="#k"/>
                <use transform="matrix(0.12345679012345678,0,0,0.12345679012345678,111.60493827160494,0)"
                     xlink:href="#m"/>
                <use transform="matrix(0.12345679012345678,0,0,0.12345679012345678,141.23456790123456,0)"
                     xlink:href="#k"/>
                <use transform="matrix(0.12345679012345678,0,0,0.12345679012345678,170.86419753086417,0)"
                     xlink:href="#n"/>
                <use transform="matrix(0.12345679012345678,0,0,0.12345679012345678,200.4938271604938,0)"
                     xlink:href="#o"/>
            </g>
            <path fill="#3a414a" d="M30 0v-248h33v221h125V0H30" id="p"/>
            <path fill="#3a414a" d="M190 0L58-211 59 0H30v-248h39L202-35l-2-213h31V0h-41" id="q"/>
            <path fill="#3a414a"
                  d="M212-179c-10-28-35-45-73-45-59 0-87 40-87 99 0 60 29 101 89 101 43 0 62-24 78-52l27 14C228-24 195 4 139 4 59 4 22-46 18-125c-6-104 99-153 187-111 19 9 31 26 39 46"
                  id="r"/>
            <path fill="#3a414a" d="M137-103V0h-34v-103L8-248h37l75 118 75-118h37" id="s"/>
            <g id="b">
                <use transform="matrix(0.04938271604938272,0,0,0.04938271604938272,0,0)" xlink:href="#p"/>
                <use transform="matrix(0.04938271604938272,0,0,0.04938271604938272,9.876543209876544,0)"
                     xlink:href="#k"/>
                <use transform="matrix(0.04938271604938272,0,0,0.04938271604938272,20.395061728395063,0)"
                     xlink:href="#l"/>
                <use transform="matrix(0.04938271604938272,0,0,0.04938271604938272,31.20987654320988,0)"
                     xlink:href="#o"/>
                <use transform="matrix(0.04938271604938272,0,0,0.04938271604938272,43.061728395061735,0)"
                     xlink:href="#q"/>
                <use transform="matrix(0.04938271604938272,0,0,0.04938271604938272,55.851851851851855,0)"
                     xlink:href="#r"/>
                <use transform="matrix(0.04938271604938272,0,0,0.04938271604938272,68.64197530864199,0)"
                     xlink:href="#s"/>
            </g>
            <path fill="#3a414a" d="M137 0h-34L2-248h35l83 218 83-218h36" id="t"/>
            <g id="c">
                <use transform="matrix(0.06172839506172839,0,0,0.06172839506172839,0,0)" xlink:href="#p"/>
                <use transform="matrix(0.06172839506172839,0,0,0.06172839506172839,12.345679012345679,0)"
                     xlink:href="#o"/>
                <use transform="matrix(0.06172839506172839,0,0,0.06172839506172839,27.160493827160494,0)"
                     xlink:href="#t"/>
                <use transform="matrix(0.06172839506172839,0,0,0.06172839506172839,41.9753086419753,0)"
                     xlink:href="#o"/>
                <use transform="matrix(0.06172839506172839,0,0,0.06172839506172839,56.79012345679011,0)"
                     xlink:href="#p"/>
            </g>
            <path fill="#3a414a" d="M27 0v-27h64v-190l-56 39v-29l58-41h29v221h61V0H27" id="u"/>
            <use transform="matrix(0.06172839506172839,0,0,0.06172839506172839,0,0)" xlink:href="#u" id="d"/>
            <path fill="#3a414a" d="M197 0v-115H63V0H30v-248h33v105h134v-105h34V0h-34" id="v"/>
            <path fill="#3a414a"
                  d="M233-177c-1 41-23 64-60 70L243 0h-38l-65-103H63V0H30v-248c88 3 205-21 203 71zM63-129c60-2 137 13 137-47 0-61-80-42-137-45v92"
                  id="w"/>
            <path fill="#3a414a"
                  d="M140-251c81 0 123 46 123 126C263-46 219 4 140 4 59 4 17-45 17-125s42-126 123-126zm0 227c63 0 89-41 89-101s-29-99-89-99c-61 0-89 39-89 99S79-25 140-24"
                  id="x"/>
            <path fill="#3a414a"
                  d="M232-93c-1 65-40 97-104 97C67 4 28-28 28-90v-158h33c8 89-33 224 67 224 102 0 64-133 71-224h33v155"
                  id="y"/>
            <path fill="#3a414a"
                  d="M143 4C61 4 22-44 18-125c-5-107 100-154 193-111 17 8 29 25 37 43l-32 9c-13-25-37-40-76-40-61 0-88 39-88 99 0 61 29 100 91 101 35 0 62-11 79-27v-45h-74v-28h105v86C228-13 192 4 143 4"
                  id="z"/>
            <path fill="#3a414a"
                  d="M30-248c87 1 191-15 191 75 0 78-77 80-158 76V0H30v-248zm33 125c57 0 124 11 124-50 0-59-68-47-124-48v98"
                  id="A"/>
            <g id="e">
                <use transform="matrix(0.049382716049382706,0,0,0.049382716049382706,0,0)" xlink:href="#l"/>
                <use transform="matrix(0.049382716049382706,0,0,0.049382716049382706,10.814814814814813,0)"
                     xlink:href="#v"/>
                <use transform="matrix(0.049382716049382706,0,0,0.049382716049382706,23.604938271604937,0)"
                     xlink:href="#w"/>
                <use transform="matrix(0.049382716049382706,0,0,0.049382716049382706,36.395061728395056,0)"
                     xlink:href="#x"/>
                <use transform="matrix(0.049382716049382706,0,0,0.049382716049382706,50.222222222222214,0)"
                     xlink:href="#y"/>
                <use transform="matrix(0.049382716049382706,0,0,0.049382716049382706,63.012345679012334,0)"
                     xlink:href="#z"/>
                <use transform="matrix(0.049382716049382706,0,0,0.049382716049382706,76.83950617283949,0)"
                     xlink:href="#v"/>
                <use transform="matrix(0.049382716049382706,0,0,0.049382716049382706,89.62962962962962,0)"
                     xlink:href="#A"/>
                <use transform="matrix(0.049382716049382706,0,0,0.049382716049382706,101.48148148148147,0)"
                     xlink:href="#y"/>
                <use transform="matrix(0.049382716049382706,0,0,0.049382716049382706,114.27160493827158,0)"
                     xlink:href="#l"/>
            </g>
            <path fill="#3a414a" d="M23 0v-37h61v-169l-59 37v-38l62-41h46v211h57V0H23" id="B"/>
            <path fill="#3a414a"
                  d="M101-251c68 0 84 54 84 127C185-50 166 4 99 4S15-52 14-124c-1-75 17-127 87-127zm-1 216c37-5 36-46 36-89s4-89-36-89c-39 0-36 45-36 89 0 43-3 85 36 89"
                  id="C"/>
            <g id="f">
                <use transform="matrix(0.09259259259259256,0,0,0.09259259259259256,0,0)" xlink:href="#B"/>
                <use transform="matrix(0.09259259259259256,0,0,0.09259259259259256,18.518518518518512,0)"
                     xlink:href="#C"/>
            </g>
            <path fill="#3a414a"
                  d="M220-157c-53 9-28 100-34 157h-49v-107c1-27-5-49-29-50C55-147 81-57 75 0H25l-1-190h47c2 12-1 28 3 38 10-53 101-56 108 0 13-22 24-43 59-42 82 1 51 116 57 194h-49v-107c-1-25-5-48-29-50"
                  id="D"/>
            <path fill="#3a414a"
                  d="M137-138c1-29-70-34-71-4 15 46 118 7 119 86 1 83-164 76-172 9l43-7c4 19 20 25 44 25 33 8 57-30 24-41C81-84 22-81 20-136c-2-80 154-74 161-7"
                  id="E"/>
            <g id="g">
                <use transform="matrix(0.06172839506172839,0,0,0.06172839506172839,0,0)" xlink:href="#D"/>
                <use transform="matrix(0.06172839506172839,0,0,0.06172839506172839,19.753086419753085,0)"
                     xlink:href="#E"/>
            </g>
            <g id="h">
                <use transform="matrix(0.09259259259259256,0,0,0.09259259259259256,0,0)" xlink:href="#B"/>
                <use transform="matrix(0.09259259259259256,0,0,0.09259259259259256,18.518518518518512,0)"
                     xlink:href="#C"/>
                <use transform="matrix(0.09259259259259256,0,0,0.09259259259259256,37.037037037037024,0)"
                     xlink:href="#C"/>
                <use transform="matrix(0.09259259259259256,0,0,0.09259259259259256,55.555555555555536,0)"
                     xlink:href="#C"/>
            </g>
            <path fill="#3a414a"
                  d="M135-194c53 0 70 44 70 98 0 56-19 98-73 100-31 1-45-17-59-34 3 33 2 69 2 105H25l-1-265h48c2 10 0 23 3 31 11-24 29-35 60-35zM114-30c33 0 39-31 40-66 0-38-9-64-40-64-56 0-55 130 0 130"
                  id="F"/>
            <g id="i">
                <use transform="matrix(0.06172839506172834,0,0,0.06172839506172834,0,0)" xlink:href="#D"/>
                <use transform="matrix(0.06172839506172834,0,0,0.06172839506172834,19.75308641975307,0)"
                     xlink:href="#F"/>
                <use transform="matrix(0.06172839506172834,0,0,0.06172839506172834,33.27160493827158,0)"
                     xlink:href="#E"/>
            </g>
        </defs>
    </g>
</svg>